<svg xmlns="http://www.w3.org/2000/svg" width="233" height="512" viewBox="0 0 233 512"><path d="M184.221 191.628c2.796-.064 6.769-.772 9.033 3.314 2.537 4.83-1.594 8.469-3.37 9.091-2.07.724-4.358.48-6.46.485l-9.711.007c-2.549.02-7.012.428-9.055-3.208-2.532-4.509 1.084-8.612 2.985-9.188 2.374-.72 4.485-.507 6.83-.495zm-2.475 11.367 2.527.02c-.712-1.108-1.657-2.408-1.805-4.424-.21-2.866 1.075-4.179 1.87-5.51-4.895.054-9.92-.114-14.796.045-4.349.743-6.847 6.917-1.093 9.437 1.577.69 3.827.432 5.489.435zm7.48-.112c6.46-3.013 2.397-10.903-2.041-9.565-6.141 1.917-2.598 10.973 2.042 9.565"/><path d="M168.82 427.846c6.92-.249 13.986-.156 20.898.32 1.556.107 5.129 3.286 3.878 7.7-.905 3.197-3.142 4.012-4.68 4.592-3.96.381-8.387-.112-12.398.057-2.656-.427-6.073.777-8.644-.275-6.547-2.678-4.995-11.412.946-12.394m13.014 11.164 2.45-.007c-2.643-3.322-2.763-6.48-.014-9.771q-4.648-.06-9.292.038c-1.932.021-4.211-.078-6.118.111-1.112.171-2.747.993-3.518 2.827-1.67 3.975 1.931 6.17 3.2 6.512 1.827.512 3.651.368 5.467.354zm7.881-.443c.759-.244 1.881-1.101 2.39-2.409.723-1.855-.082-4.182-.846-5.174-1.466-1.899-3.196-1.706-4.821-1.389-5.99 3.336-1.332 10.922 3.277 8.972"/><path d="M167.746 236.584c1.23-.29 3.057-.189 4.317-.18l6.538.04 6.238-.007c2.214-.024 5.915-.57 7.671 2.28 3.505 5.689-.618 9.127-2.83 10.013-.915.549-7.646.366-8.948.368l-7.674-.007c-2.026-.011-5.863.447-7.571-1.643-4.265-5.22-.626-9.32 2.259-10.864m12.748 11.152 3.722-.02c-2.533-3.415-2.549-6.523.035-9.847-2.11-.203-4.49-.041-6.621-.014-2.437.032-4.918-.057-7.345.017-1.604.028-3.902.29-4.963 3.005-1.58 4.047 1.89 6.161 3.044 6.446 1.815.447 3.348.403 5.066.413zm8.845-.362c.983-.488 2.23-1.14 2.838-3.043.652-2.032-.415-4.138-1.164-4.986-1.403-1.589-2.882-1.615-4.407-1.27-.947.52-2.1 1.144-2.638 3.097-.606 2.2.3 4.243 1.122 5.205 1.394 1.631 2.76 1.451 4.25.997"/><path d="M16.839 427.106c3.418-.428 7.437-.01 10.93-.176 3.142.062 6.306-.23 9.443.155 1.247.155 4.751 1.355 5.07 4.651.562 5.786-2.595 6.987-4.463 7.795l-12.988.171c-3.504.068-8.111 1.249-11.275-2.471-.97-1.142-1.722-3.99-.886-6.156 1.012-2.621 2.706-3.384 4.169-3.97m4.997 1.351c2.881 3.325 2.425 6.358-.02 9.763l7.792.006c2.41 0 9.086 1.122 10.856-2.533.351-.727.672-1.976.628-3.068-.04-1.008-.375-1.719-.742-2.23-2.192-3.063-5.96-2.18-8.466-2.02-3.319.016-6.737-.058-10.048.082m-2.413 9.541c.777-.443 2.694-1.816 2.895-3.368.782-6.045-4.058-6.164-5.255-6.024-6.276 2.683-2.614 10.37 2.36 9.392"/><path d="M167.949 74.612c3.42-.556 7.385-.023 10.86-.09 3.127.084 6.277-.24 9.4.003 1.063.25 2.317.405 3.271 1.578 4.645 5.703.337 9.573-2.425 10.855-1.172.28-2.982.202-4.192.201l-6.463-.015c-2.818-.008-5.634.05-8.454.017-1.49-.156-4.027-.121-5.277-2.256-3.802-6.49 1.175-9.433 3.28-10.293m13.883 11.22 1.89.058c-2.279-3.86-2.565-6.253-.02-9.925a375 375 0 0 0-9.02-.029c-2.033-.013-4.644-.194-6.627.184-1.078.467-4.285 2.143-3.365 5.529 1.564 5.758 8.197 4.19 10.744 4.167zm6.9-.225c1.087-.498 3.683-2.108 3.217-5.242-.683-4.598-3.735-4.456-5.376-4.27-6.344 3.194-1.864 10.904 2.16 9.512"/><path d="M16.28 237.118c2.026-.34 4.369-.17 6.418-.157 4.635.03 9.316-.215 13.942.206a5.755 5.755 0 0 1 5.06 5.397c.437 4.941-3.09 6.275-4.594 6.883a12 12 0 0 1-3.234.26c-4.95-.26-9.897-.076-14.85.031-1.572-.115-4.755.01-6.104-2.247-3.831-6.412 1.37-9.577 3.362-10.373m4.818 11.165 10.293-.026c1.056-.011 5.282-.011 6.18-.536.85-.325 2.033-.903 2.542-2.516 1.44-4.563-2.567-6.55-3.884-6.834-1.85-.401-3.732-.123-5.572-.074l-8.551.072-.4.084-.08.279c2.18 4.267 2.108 6.003-.528 9.551m-2.973-.08c5.558-1.176 4.374-10.069-1.64-9.598-6.096 2.328-3.272 9.944 1.64 9.598"/><path d="M48.981 76.314c3.832-.625 8.284.417 12.178-.013.914-.101 2.612-.062 3.5.255 4.95 1.77 4.735 11.11-.388 12.615-.974.386-5.199.473-6.688.128-3.196-.739-11.255 2.93-12.516-5.363-.669-4.392 2.09-7.079 3.914-7.622m3.637 11.506q3.23.12 6.46.158c1.783.028 4.238.324 5.923-.672.68-.716 1.36-1.466 1.65-3.106.179-1.004.191-2.112-.032-3.087-.352-1.54-1.19-2.464-1.911-2.906-1.872-1.147-9.75-.676-12.105-.46 1.989 3.776 2.103 6.119.015 10.073m-2.095-.302c4.247-3.625 1.634-10.78-1.678-9.716-4.045 2.262-2.812 10.35 1.678 9.716"/><path d="M50.481 267.334c2.898-.729 6.122.262 9.357.009 1.98-.156 11.298-2.068 9.443 8.55-.384 2.196-2.532 3.491-3.608 3.962-1.982.405-5.078.108-7.202.188-2.688-.293-5.844.56-8.485-.364-5.201-1.82-4.533-11.214.495-12.345m3.57 10.696c.385 1.15 8.767.352 9.984.442 5.781.426 5.137-9.92.5-9.822-1.732.038-9.46-.664-10.567.16 1.114 1.699 2.035 3.962 1.13 7.186-.213.756-.676 1.659-1.047 2.034m-1.768-9.052c-.778-.22-1.132-.332-1.944-.136-1.645.395-3.329 3.884-1.958 7.338.792 1.995 1.994 2.255 3.149 2.341l.087-.056.145-.096c2.708-1.756 3.354-6.76.52-9.391"/><path d="M52.283 268.978c.14-2.249 1.328-1.294 1.565-.274l.12.106c1.114 1.699 2.035 3.962 1.13 7.186-.213.756-.676 1.659-1.047 2.034l-.33-.061c-.17.469-.132.28-.179.855-.723.583-1.08.764-1.834.191l-.178-.494.087-.056.145-.096c2.708-1.756 3.354-6.76.52-9.391"/><path d="M49.539 193.093c1.019-.21 2.22-.08 3.256-.092 3.18-.011 6.35-.074 9.532-.067 1.299.139 3.665-.257 4.796 1.388 3.802 5.533.82 10.047-2.07 11.206-3.12.23-6.064.085-9.455.164-1.95.045-11.213 1.807-9.733-8.027.364-2.418 2.505-3.95 3.674-4.572m3.678 1.33c2.303 3.486 2.03 6.298-.09 9.914l5.825-.026c2.12-.012 10.832 1.517 7.965-7.808-.808-2.628-4.98-2.201-6.25-2.126zm-1.884 9.555c4.22-3.888 1.426-10.495-2.08-9.401-4.154 3.643-1.44 10.826 2.08 9.401"/><path d="M50.565 417.131c3.252-.317 6.638.203 9.928-.068 2.227-.184 8.22-1.001 8.966 5.012.675 5.44-2.186 7.098-4.014 7.614-.562.186-3.905.047-4.76.035-3.62-.062-6.819.296-10.471-.136-1.549-.183-4.526-3.411-3.53-8.271.494-2.415 2.631-3.741 3.88-4.186m3.57 10.992c1.035 1.042 7.155-.118 8.778.226 1.414.063 4.325-.243 5.154-2.953.942-3.076-.734-6.14-2.204-6.595-1.852-.572-4.185-.407-6.139-.273-1.56.106-4.132-.464-5.664.168 2.025 2.868 1.938 6.3.076 9.427m-2.085-.013c3.53-2.84 2.331-8.4-.938-9.64-5.107 1.181-3.767 10.62.938 9.64"/><path d="M51.112 418.47c.295-1.038 2.226-.885 2.65-.28l.042.434.256.072c2.025 2.868 1.938 6.3.076 9.427-.27.248-.145.1-.346.763-.645.4-.99.723-1.61.067l-.13-.843c3.53-2.84 2.331-8.4-.938-9.64"/><path d="M19.147 205.524c-1.851.538-5.53-.244-6.866-3.258-2.384-5.378 1.16-9.09 3.266-9.267l.14.025c.871.151 5.344-.11 5.703.364l.098.86c.254.184.236.165.493-.014 2.465 3.496 2.085 6.737-.257 9.727-.577-.057-.38-.21-.825.413l.022.091c-.544.368-1.298.663-1.774 1.06m.2-1.557c.775-.464 2.597-1.798 2.789-3.325.813-6.482-4.05-6.861-5.469-6.547-2.462 1.485-5.087 4.634-1.353 9.039 1.15 1.357 2.76 1.078 4.034.833"/><path d="M20.324 88.654c-1.533.156-8.113-.461-7.133-8.082.245-1.905 2.334-3.72 3.278-4.304 1.19.19 5.755-.275 6.361.36l.063.234c.098.366.058.223.194.66l.218-.185c2.856 2.737 2.376 6.358.14 9.662l-.109.884c-1.03 1.019-2.035-.96-3.012.77m.841-1.661c1.051-.786 3.238-2.3 2.662-5.548-.706-3.985-3.868-4.694-5.484-4.15-2.615 1.084-4.97 4.904-1.365 8.874 1.115 1.23 2.935 1.01 4.187.824"/><path d="M190.39 48.769c5.539 2.91 2.787 11.454-1.6 11.701-5.596.317-11.2.035-16.8.091-1.849.019-3.659.054-5.478-.703-4.393-1.342-4.12-9.675.163-11.257 2.782-1.028 5.49-.693 8.342-.673l11.018.099c-.48.76-1.022.347-1.653.952-.494.476.05.632-.539.535-1.083-.25-2.453-.248-3.576-.155-4.017.317-8.257-.53-12.239.385-4.512 1.036-4.523 8.294.068 9.147 4.384.814 8.864.006 13.269.404.65.06 2.046.105 2.626-.145l.028.323.22.13.134-.155c.65-.718.6-.626 1.343-.645 5.13 2.096 9.758-6.057 2.91-9.336l.023-.442c.283-.322 1.3-.206 1.742-.256"/><path d="M16.444 48.512c.645-.525 1.703-.746 2.388-.781 3.336-.165 6.77-.04 10.096-.042 3.23-.003 6.568-.207 9.746.299 4.256.677 7.259 7.797 1.636 11.82-.79.564-1.669.72-2.502.854-4.183.134-8.525.179-12.693.105-1.75-.03-6.564.15-7.956-.516 1.511-.354 4.336-.086 6.025-.155-.012-.423-.01-.476.001-.888l.247-.083c.942.668 11.704.086 13.503.103.492.005 2.288-.381 2.864-.784.605-.423 1.725-1.508 2.024-2.932.168-.802.232-1.644.067-2.497-.24-1.24-.83-1.783-1.31-2.346-.665-.782-2.424-1.521-3.085-1.57-1.708-.13-13.276-.29-13.935.243l-.136.195-.171-.107c-.046-.239-.09-.47-.138-.706-.63-.493-1.469-1.207-1.67.673-1.124-.24-1.883-.258-2.996-.031l-.154-.685c-.336-.183-1.364-.097-1.851-.169"/><path d="M16.469 76.268c1.892-.995 4.364-.755 6.338-.686 5.214.183 10.467-.263 15.672.229 2.102.198 4.026 1.773 5.018 6.141-2.03 8.792-7.203 6.408-11.008 6.677-4.018.284-8.134-.267-12.165.025.977-1.73 1.981.248 3.012-.771l.109-.884c1.371.55 5.92.337 7.563.252 2.936-.153 9.036 1.621 10.781-4.187 1.166-3.879-3.431-6.148-4.53-5.926-1.854.388-12.87-.986-13.954.2l-.218.183c-.136-.436-.096-.293-.194-.659l-.063-.235c-.606-.634-5.17-.17-6.361-.359"/><path d="M15.547 192.999c1.47-.908 9.104-.455 11.015-.469l6.214-.058c2.136-.016 8.048-.151 8.743 5.29.884 6.934-5.44 7.95-7.18 7.803-5.013-.421-10.243.533-15.192-.04.476-.397 1.23-.692 1.774-1.06l-.022-.09c.445-.624.248-.471.825-.414 1.66.617 14.182.405 15.798-.338.836-.384 2.084-1.476 2.505-3.26.182-.776.146-1.607 0-2.39-.256-1.38-1.164-2.558-1.76-3.09a3.6 3.6 0 0 0-1.888-.905c-1.238-.192-13.94-.171-14.398.256-.257.18-.24.198-.493.014l-.098-.86c-.359-.474-4.832-.213-5.702-.364z"/><path d="M21.445 49.397c.201-1.88 1.04-1.166 1.67-.673.048.237.092.467.138.706l.17.107.137-.195c2.645 3.42 2.26 6.392-.128 9.783l-.247.083c-.01.412-.013.465-.001.888-1.69.07-4.514-.2-6.025.155-1.45-.425-3.519-2.096-3.832-5.675-.093-1.062.024-2.16.32-3.022.525-1.551 1.992-2.812 2.797-3.042.487.072 1.515-.014 1.85.169l.155.685c-.714.242-2.51 1.275-2.8 2.902-.981 5.488 1.781 6.557 3.493 7.031 3.522.976 7.602-6.446 2.303-9.902"/><defs><linearGradient id="a" x1="1672.773" x2="1619.791" y1="481.164" y2="465.7" gradientUnits="userSpaceOnUse"><stop offset="0" stop-opacity=".941"/><stop offset="1"/></linearGradient></defs><path fill="url(#a)" d="M1652.76 426.707c14.15-.979 24.93-1.117 38.7 6.591-3.92.444-12.96-.585-15.47 2.278l-.21 3.924c-13.37-.166-32.46-.918-42.24 21.199-12.78 28.885 5.65 54.606 16.39 61.751-6.61.171-6.15-.648-11.93 5.734l-1.19 1.375-1.96-1.152-.25-2.876c-5.79-8.929-10.82-10.238-15.46-24.537-9.17-28.281 4.23-47.214 14.15-61.076 5.23.862.4-.522 4.79-4.748 5.6-5.381 10.42-1.711 14.68-8.463" transform="scale(.11256 .11255)"/><path d="M42.859 221.048c1.42-.204 3.406-.016 4.899-.085 1.097-.05 3.651-.156 4.651.143.343.597.194.23.357 1.343-2.625.017-6.674.179-9.442-.092-.275-.027-.37-.805-.465-1.31"/><path d="M61.98 221.07c2.838-.072 6.46-.247 9.344.038.273.027.394.81.54 1.381-1.896.266-7.458.061-9.602-.212-.096-.013-.22-.88-.281-1.207"/><path d="M176.334 221.584c.946-.279 3.492-.193 4.524-.176 1.363.021 3.862-.18 5.142.18.249.478.138.24.234 1.177-1.09.464-7.943.212-9.46-.138-.263-.061-.32-.562-.44-1.043"/><path d="M81.242 221.116c1.956-.126 7.456-.211 9.586.547.148.052.13.506.163.943l-6.642.002c-.908-.003-1.932.038-2.846-.107-.261-.04-.297-.375-.387-.757z"/><path d="M23.855 221.053c3.02-.49 6.537-.057 9.6-.013.137 0 .147.198.234.459l-.05.737c-2.461.165-6.785.479-9.347-.062-.287-.06-.355-.642-.437-1.12"/><path d="M157.236 221.573c.662-.322 8.738-.201 9.59-.102.315.413.219.34.365 1.366-2.924.374-6.372-.124-9.34-.182-.308-.007-.463-.606-.615-1.082"/><path d="M4.737 221.072c1.176-.552 8.003-.07 9.592-.055.259.002.328.638.44 1.138-.998.521-7.835.073-9.319-.035-.426-.031-.51-.448-.713-1.048"/><path d="M119.166 221.322c1.353-.085 9.123-.496 9.702.462l.004.811c-1.316.17-8.826.63-9.525-.325-.155-.212-.141-.584-.18-.948"/><path d="M139.08 221.372c1.18-.004 8.506-.303 9.016.495l.001.402c-.288.695-.104.449-.624.546-1.58-.03-8.097.215-9.154-.6l-.005-.44c.24-.38.465-.344.766-.403"/><path d="M100.083 221.284c2.048-.276 7.241-.18 9.514.308.154.033.206.542.294.963-1.31.194-3.377.03-4.736.056-1.27.024-3.543.149-4.73-.15-.327-.504-.189-.175-.342-1.177"/><path d="M195.865 28.517c2.47 4.026 3.332 5.59 5.406 10.645 10.314.457 20.698-.168 31.02.01.188.003.275.098.434.297l.094.48c-.474 1.112-5.4.64-6.424.661-8.204.166-16.436-.198-24.637.127 1.75 5.037 3.055 11.111 3.368 17.461-.226 5.546.07 12.217.07 17.818l-.02 18.608c0 1.878-.049 7.502.08 9.13.084 3.681.08 10.328-.01 14.09-.539 1.34.102 6.062-.06 7.01.114 2.008.067 5.336.065 7.484l-.011 12.204-.014 15.502c-.003 2.471.04 6.023-.052 8.42l.139.696-.158.692c.166 3.475.084 12.845.052 16.675-.056 6.725.101 15.24-.072 21.82q-.076.202-.154.404a6427 6427 0 0 0-.004 38.697c.002.233.036.629.051.807.078 3.21.074 8.84-.009 12.113l-.174.376c.018 3.762-.194 6.865-.204 10.504l-.03 39.888c.173.289.08.172.277.353-.343 14.777-.12 30.194-.145 45.07q-.048 8.038-.021 16.077c.002 1.844-.04 5.846.08 7.49.196 5.733-.023 15.207.003 21.241 9.232.004 18.99.25 28.194-.16v1.371c-9.31.064-18.92-.184-28.195.13l-.011 21.612c-.007 9.36.27 18.206-1.475 27.046-2.359 11.953-7.692 19.49-13.038 24.089l-.021 23.872c.001 3.523.048 7.705-.079 11.238-.021.583-.234 1.021-.416 1.434h-16.488c-2.966-4.39-5.402-9.682-8.047-14.963-1.548-3.088-3.502-6.696-4.918-9.94.093-.298.196-.504.311-.77.467.015.538-.158.867.303l.121.492a622 622 0 0 1 7.16 14.074c1.197 2.396 3.663 7.474 4.984 9.363 1.13.11 4.867.53 5.774-.014l.264-.048.149.555c.517.37.764.535 1.223.02.006-3.706.373-29.62.03-30.446-.331-.113-.456-.126-.75-.52 6.601-3.87 12.883-6.611 18.075-17.892 2.508-5.352 4.16-12.343 4.711-19.928.369-4.85.236-17.558.24-23.09l.074-40.555.267-155.663c-1.119.017-7.668.348-8.188-.35l-.025-.413.188-.493c.506-.462 7.027-.254 8.067-.25.128-9.892.033-20.97.037-30.914l.03-68.757.154-40.85c.054-24.274.673-35.693-9.185-51.546.317-.943.48-.755.976-.887m-14.391 452.607c-.006 3.877-.241 27.201.077 29.398.26.336.153.268.45.34l7 .01c.038-3.79.173-32.59-.071-34.062l-.157-.17a73 73 0 0 1-7.3 4.484"/><path d="M0 391.319c.336-2.445.23-18.398.23-21.767l.026-40.76.49-177.477.164-51.976C.93 88.305.851 77.223.98 66.195c.148-12.625 1.97-22.768 6.207-31.524C17.85 12.64 41.382 5.748 55.618 3.288c3.31-.572 6.777-1.531 10.088-1.315 1.14.288 2.466-.087 3.433.257l.035.543c-1.718.357-3.603.43-5.346.65q-4.86.642-9.712 1.526c-14.022 2.682-37.885 9.75-47.575 34.56-2.045 5.236-3.716 12.941-3.983 19.856-.252 6.538-.173 13.832-.174 20.469l-.044 33.319-.384 110.623-.439 149.62-.193 44.235c-.048 17.799-1.135 34.367 6.038 46.645 6.264 10.722 13.725 14.296 21.328 17.481-.324.632-.379.6-.785.724-.573 2.115-.092 4.904-.436 6.2l.006-5.95c-1.834-.691-6.111-2.644-7.844-3.854l-.008 31.79q3.915.042 7.832-.082c-.338.767-.514 1.073-1.02.81.31.093.37.16.603.604h-8.042c-.339-.448-.618-.7-.632-1.651-.056-3.619-.022-7.298-.012-10.915l.055-21.312c-1.304-1.224-2.865-2.126-4.289-3.385-5.462-4.766-10.53-12.128-12.934-24.363C.6 447.408.502 442.387 0 440.183z"/><defs><linearGradient id="b" x1="1439.256" x2="1625.643" y1="4296.067" y2="4418.848" gradientUnits="userSpaceOnUse"><stop offset="0" stop-opacity=".969"/><stop offset="1"/></linearGradient></defs><path fill="url(#b)" d="M1427.58 4317.31c6.11-3.06 21.83-5.53 28.71-6.9 18.06-3.27 36.09-7.14 54.09-11.62 18.31-4.91 36.56-10.9 54.72-17.97 11.54-4.6 26.73-12.07 37.99-15.2 2.61 3.51 3.72 3.62 6.66 4.63 3.05 7.34-.21 237.58-.26 270.51-4.08 4.57-6.27 3.1-10.87-.18l-1.32-4.93-2.35.42c-27.89-55.21-54.79-112.73-82.39-168.62-8.21-16.62-16.47-33.11-24.27-50.68-16.24 1.92-36.75 4.56-52.52 11.19l-1.08-4.37c-2.92-4.09-3.55-2.56-7.7-2.69zm71.11-2.36c17.92 32.95 35.3 67.31 52.1 103l50.11 104.77c.02-24.88.99-235.89-.92-241.35l-1.19-.37c-34.44 12.9-65.28 24.31-100.1 33.95" transform="scale(.11256 .11255)"/><defs><linearGradient id="c" x1="1259.057" x2="925.165" y1="3960.465" y2="4704.913" gradientUnits="userSpaceOnUse"><stop offset="0" stop-opacity=".957"/><stop offset="1"/></linearGradient></defs><path fill="url(#c)" d="M842.941 4146.71c14.604-15.96 106.836-1.91 128.414-5.64 4.676-.81 10.895 4.5 15.151 9.01l.028 184.03a4597 4597 0 0 0 308.136-5.68c27.66-1.03 55.31-2.89 82.95-5.57 14.45-1.47 36.37-5.77 49.96-5.55l-.59 3.59c-1.02 2.36-1.94 4.19-2.76 6.84-15.93 4.79-37.84 6.26-54.26 7.62-26.82 2.2-53.65 3.92-80.48 5.17-101.87 4.92-202.05 2.28-303.174 5.88l.144 122.4c.016 17.64 1.835 62.56-3.579 73.88-6.614-2.59-39.607.07-41.482-1.67 10.986.35 21.088 1.92 31.817-3.66l1.272-.68c1.556-15.26.845-165 .817-190.76-7.758.06-14.69 0-22.428-.9 6.056-1.85 16.565-2.7 22.931-3.74l.251-2.09c-12.145-2.33-73.4.94-77.132-4.86 23.344-2.1 52.639-.37 76.456-.46.081-57.11.794-122.89-.308-179.3-6.758-1.14-14.308-1.21-21.129-.95-33.306 1.28-67.494-1.96-100.721 1.33-.648 40.93 1.321 130.66-.795 164.86-2.531 9.6-1.953 12.66-1.826 24.22-1.828 16.2-.577 31.6-.988 47.47-1.028 39.72 1.782 107.27-.311 144.03-3.517 1.62-4.032 1.62-7.467 1.82-1.751-10.79-.794-74.56-.683-89 2.888-7.82 2.928-275.14 1.786-301.64" transform="scale(.11256 .11255)"/><path d="M94.881 466.72c.129 2.983.124 33.07-.2 33.95a838 838 0 0 1-.003-11.53c-15.289.345-30.579-.13-45.857-1.425-3.841 6.934-7.462 14.56-11.286 21.56-.426.78-.785 1.666-1.298 2.147l-.267-.205c-.096-.937.006-.555-.308-1.197 2.846-5.54 5.813-10.826 8.636-16.43.952-1.889 2.261-4.162 3.136-6.09-2.363-.408-5.322-1.007-7.67-1.11a1794 1794 0 0 1-6.575 14.98c-1.008 2.27-3.148 6.892-3.93 9.229-.043.296-.008.107-.143.524l-.163-.16c-.095-.72-.327-1.771-.303-2.404.597-1.19 1.572-3.757 2.242-5.233a1117 1117 0 0 0 7.669-17.155l.124-.227-.015-.266c.407-.622 2.167-.243 2.954-.409l.14-.033c1.214.047 3.245.556 4.553.729q4.995.641 9.997.997 19.178 1.1 38.363.755c.01-3.674-.129-18.488.204-20.996"/><path d="M204.803 380.126c-.122-1.644-.079-5.646-.081-7.49q-.026-8.038.021-16.077c.025-14.876-.198-30.293.145-45.07-.197-.181-.104-.064-.276-.353l.029-39.888c.01-3.639.222-6.742.204-10.504l.174-.376c.057 1.745.038 3.414.028 5.162l27.952-.037v1.39l-27.986.063-.029 44.263c9.268-.02 18.762-.231 28.015.015v1.304l-28.035.035-.081 43.732c9.28.012 18.847-.2 28.116.123v1.202l-18.765-.024c-2.92-.001-6.499-.212-9.364.011l-.007 14.21c-.002 2.4.04 6.035-.06 8.31"/><path d="M87.947 0h34.749c1.888.545 4.365.376 6.309.611 3.246.393 6.575.516 9.815.969 1.128.158 3.567.284 4.532.65-.746.2-3.677-.29-4.05.563-.021.05-.037.112-.055.169-.916.08-3.146-.312-4.124-.425q-3.937-.462-7.876-.807c-5.738-.495-12.092-.399-17.862-.43q-8.595-.093-17.189.19c-3.325.047-6.69-.04-10.009.125q-4.088.247-8.174.704c-1.433.159-3.444.516-4.839.454l-.035-.543c-.967-.344-2.293.031-3.433-.257 1.807-.459 4.085-.558 5.94-.741Q76.736.667 81.83.41C83.56.324 86.288.377 87.947 0"/><path d="M143.352 2.23c15.275 1.256 39.792 7.443 52.513 26.287-.497.132-.659-.056-.976.887-1.825-2.449-4.009-5.318-5.97-7.168C173.603 7.794 155.66 5.527 139.246 2.962c.018-.057.034-.12.055-.17.373-.851 3.304-.363 4.05-.562"/><defs><linearGradient id="d" x1="344.5" x2="244.057" y1="4403.345" y2="4413.14" gradientUnits="userSpaceOnUse"><stop offset="0" stop-opacity=".961"/><stop offset="1"/></linearGradient></defs><path fill="url(#d)" d="M254.883 4280.31a1855 1855 0 0 0 79.139 23.08c10.447 2.64 27.525 4.32 37.011 7.83l-1.24.29c-6.989 1.47-22.631-1.89-26.243 3.63l.136 2.37-1.105 2.01c-27.094-10.95-59.598-17.39-87.783-26.7.005 68.31 1.281 159.17-.263 225.62-.213 5.62 1.841 14.96 2.692 21.35l1.44 1.43c1.205-3.71.895-2.03 1.274-4.66 9.458-.57 51.699 3.35 56.885-5.14 2.793 5.7 1.888 2.31 2.734 10.63l-3.448 6.95h-75.898c-2.075-3.95-2.61-4.54-5.359-5.36 4.496 2.33 6.055-.39 9.056-7.2.565-17.94.129-49.26.124-68.08l.006-126.53c3.053-11.52-1.22-36.3 3.869-55.09 3.611-1.1 4.095-.82 6.973-6.43" transform="scale(.11256 .11255)"/><path d="M205.028 248.255c-.015-.178-.05-.574-.05-.807-.041-12.89-.034-25.807.003-38.697l.154-.405c.055 1.748.037 3.401.03 5.15l27.834-.034v1.357l-27.878.075-.033 22.344c-.005 2.387.054 8.847-.06 11.017"/><path d="M205.126 58.198c.306 3.65.237 10.02.237 13.88l17.414.047 5.254-.035c.842-.013 3.45-.364 4.059.643-.312 1.425-8.185.802-9.445.796L205.34 73.5l-.023 19.67c-.003 2.653.056 8.116-.063 10.585-.128-1.629-.08-7.253-.078-9.13l.02-18.61c0-5.6-.297-12.27-.071-17.817"/><path d="M205.186 124.854c.162-.948-.479-5.67.06-7.01.052 1.882.043 3.736.042 5.62 9.085-.002 18.69-.374 27.711-.03v1.248z"/><path d="M205.174 168.464c9.1-.09 18.75-.328 27.825-.004v1.288c-5.842.26-11.902.1-17.758.111l-6.556.013c-.99.004-2.592.114-3.53-.02l.158-.692z"/><path d="m233 448.027-17.08.034c-1.704.002-9.657.37-10.653-.406l-.046-.314c1.085-1.129 9.785-.655 11.583-.642l16.195-.025z"/><path d="m95.744 488.93.228.234.003 21.227 8.991.078c1.14.003 3.763-.147 4.722.143l-.143.077c-1.207.628-2.345.451-3.581.412.21.196 3.925-.104 4.67.188-.6.363-1.08.416-1.572.71h-8.766c-1.333-.975-3.683.654-5.539-1.311.387-.023.445-.023.84-.205.236-4.137-.08-11.74.036-16.21.046-1.787-.095-3.52.111-5.344"/><path d="M95.744 488.93c-.014-1.302-.08-1.646.206-2.727.08.96.003.988.266 1.495 1.182.38 3.64.063 4.967.14.42.652 7.315.284 8.682.547l-.028.235c-.717.117-1.9.212-2.581.42-3.195.484-7.929-.003-11.284.124z"/></svg>